<?xml version="1.0" encoding="UTF-8" standalone="no"?>
<!DOCTYPE svg PUBLIC "-//W3C//DTD SVG 1.1//EN" "http://www.w3.org/Graphics/SVG/1.1/DTD/svg11.dtd">
<svg width="100%" height="100%" viewBox="0 0 500 500" version="1.1" xmlns="http://www.w3.org/2000/svg" xmlns:xlink="http://www.w3.org/1999/xlink" xml:space="preserve" xmlns:serif="http://www.serif.com/" style="fill-rule:evenodd;clip-rule:evenodd;stroke-linejoin:round;stroke-miterlimit:2;">
    <g transform="matrix(31.1389,0,0,31.1389,17.361,17.3561)">
        <path d="M13.396,12.382C12.853,12.718 12.288,12.827 11.708,12.743C11.13,12.663 10.541,12.43 9.968,12.141C9.681,11.993 9.395,11.838 9.114,11.664C8.824,11.496 8.571,11.326 8.246,11.119C8.117,11.043 7.983,10.971 7.85,10.9C7.795,10.306 7.717,9.365 7.726,8.859C7.738,8.277 7.778,7.692 7.857,7.113C7.936,6.535 8.055,5.96 8.237,5.402C8.318,5.16 8.413,4.922 8.521,4.69C8.57,4.678 8.616,4.668 8.663,4.657C8.676,4.66 8.685,4.661 8.698,4.664C8.694,4.659 8.69,4.656 8.687,4.651C8.717,4.645 8.748,4.637 8.777,4.63C8.888,4.706 8.991,4.782 9.074,4.867C9.2,4.992 9.284,5.13 9.334,5.285C9.385,5.439 9.401,5.614 9.4,5.802C9.401,5.99 9.38,6.187 9.377,6.404C9.527,6.248 9.633,6.058 9.695,5.848C9.755,5.639 9.769,5.398 9.694,5.168C9.622,4.938 9.451,4.737 9.249,4.628C9.206,4.605 9.161,4.586 9.116,4.568C9.334,4.534 9.544,4.515 9.745,4.516C10.137,4.516 10.483,4.599 10.802,4.762C11.121,4.925 11.42,5.171 11.711,5.464C12.005,5.757 12.281,6.095 12.612,6.438C12.601,5.962 12.471,5.503 12.24,5.077C12.008,4.656 11.656,4.26 11.179,4.018C10.706,3.771 10.129,3.725 9.644,3.869C9.238,3.988 8.885,4.214 8.623,4.516C8.617,4.516 8.611,4.516 8.606,4.517C8.609,4.519 8.612,4.521 8.616,4.523C8.61,4.53 8.605,4.537 8.599,4.543C8.597,4.541 8.595,4.538 8.593,4.536C8.608,4.507 8.625,4.478 8.641,4.45C8.962,4.131 9.274,3.863 9.598,3.67C9.933,3.468 10.273,3.36 10.629,3.335C10.986,3.31 11.369,3.365 11.771,3.466C12.173,3.565 12.585,3.712 13.046,3.833C12.79,3.431 12.442,3.105 12.024,2.86C11.607,2.62 11.101,2.463 10.569,2.503C10.037,2.536 9.519,2.795 9.177,3.169C9.069,3.288 8.975,3.417 8.894,3.551C8.902,3.471 8.913,3.391 8.912,3.309C8.91,2.803 8.697,2.263 8.325,1.883C7.956,1.497 7.474,1.275 7.005,1.174C6.53,1.076 6.054,1.085 5.594,1.212C6.018,1.43 6.422,1.597 6.787,1.794C7.152,1.987 7.475,2.202 7.723,2.461C7.972,2.719 8.151,3.026 8.265,3.401C8.357,3.7 8.409,4.032 8.437,4.395C8.363,4.026 8.18,3.676 7.915,3.379C7.577,3.002 7.061,2.738 6.53,2.7C5.997,2.657 5.49,2.809 5.071,3.046C4.651,3.287 4.3,3.609 4.04,4.009C4.502,3.891 4.915,3.748 5.319,3.653C5.72,3.555 6.104,3.503 6.462,3.532C6.818,3.56 7.156,3.671 7.49,3.876C7.664,3.982 7.834,4.11 8.003,4.254C7.824,4.235 7.634,4.267 7.47,4.353C7.254,4.462 7.094,4.642 6.99,4.834C6.885,5.026 6.826,5.235 6.821,5.451C6.97,5.295 7.096,5.142 7.23,5.009C7.362,4.876 7.498,4.764 7.642,4.691C7.787,4.617 7.944,4.579 8.121,4.579C8.193,4.579 8.269,4.587 8.347,4.597C8.193,4.809 8.049,5.031 7.92,5.26C7.619,5.796 7.381,6.366 7.181,6.949C6.982,7.532 6.822,8.128 6.69,8.732C6.604,9.138 6.569,9.781 6.536,10.355C6.412,10.318 6.288,10.279 6.162,10.248C5.425,10.07 4.659,10.016 3.914,10.088C3.169,10.16 2.448,10.354 1.784,10.651C1.125,10.956 0.5,11.331 0,11.84C1.318,11.346 2.659,11.111 3.943,11.178C5.229,11.242 6.441,11.645 7.525,12.307C7.788,12.469 8.114,12.678 8.428,12.854C8.747,13.028 9.074,13.194 9.417,13.338C10.101,13.619 10.85,13.848 11.661,13.834C12.064,13.826 12.478,13.746 12.854,13.584C13.231,13.424 13.561,13.182 13.827,12.908C14.353,12.349 14.68,11.713 14.942,11.056C14.427,11.544 13.946,12.058 13.396,12.382Z" style="fill:rgb(208,230,240);fill-rule:nonzero;stroke:rgb(248,131,121);stroke-width:0.16px;"/>
    </g>
</svg>
